<svg xmlns="http://www.w3.org/2000/svg" width="42.579" height="28.32" viewBox="288.226 146.49 42.579 28.32"><g data-name="quran (2)"><path d="M309.516 155.247v2.273l-17.74-9.197.873-1.511a.643.643 0 0 1 .714-.303l8.273 2.073a11.705 11.705 0 0 1 7.88 6.665Zm0 0" fill="#ebe1dc" fill-rule="evenodd" data-name="Path 51868"/><path d="m309.516 159.932-19.822-10.275a.498.498 0 0 1-.213-.671l.528-1.018a.498.498 0 0 1 .671-.213l18.836 9.765v2.412Zm0 0" fill="#a8ebec" fill-rule="evenodd" data-name="Path 51869"/><path d="m329.55 148.986-.527-1.018a.498.498 0 0 0-.671-.213l-17.094 8.861v2.413l18.08-9.372a.498.498 0 0 0 .212-.671Zm0 0" fill="#a8ebec" fill-rule="evenodd" data-name="Path 51870"/><path d="m309.516 164.733-16.113 10.055a.138.138 0 0 1-.198-.059 3.156 3.156 0 0 1 .987-3.867l1.007-.743a3.896 3.896 0 0 0 1.253-2.284 2.49 2.49 0 0 1 1.311-1.81l7.55-3.915 4.203 2.623Zm21.066-15.046-.017-.03a.593.593 0 0 0-.786-.23l-18.521 9.602v1.806l2.46 1.275 16.302-10.174a1.668 1.668 0 0 0 .562-2.25Zm0 0" fill="#01807e" fill-rule="evenodd" data-name="Path 51871"/><path d="m309.516 164.733-20.505-12.797a1.668 1.668 0 0 1-.561-2.25l.016-.029a.593.593 0 0 1 .786-.23l20.264 10.505v4.8Zm15.323 6.129-1.006-.743a3.894 3.894 0 0 1-1.253-2.284 2.49 2.49 0 0 0-1.312-1.81l-10.01-5.19v4.985l14.37 8.968c.07.044.164.017.199-.059a3.156 3.156 0 0 0-.988-3.867Zm0 0" fill="#01807e" fill-rule="evenodd" data-name="Path 51872"/><path d="M310.96 152.125c-.343.407-.658.836-.945 1.284a3.22 3.22 0 0 0-.5 1.737v15.636c0 .072.083.113.14.069l.476-.361a.423.423 0 0 1 .511 0l.476.361c.057.044.14.003.14-.07v-18.546c0-.157-.197-.23-.299-.11Zm0 0" fill="#059eee" fill-rule="evenodd" data-name="Path 51873"/><path d="m311.258 156.617 15.998-8.293-.873-1.512a.644.644 0 0 0-.714-.303l-8.274 2.073a11.701 11.701 0 0 0-6.137 3.85v4.185Zm0 0" fill="#dcd2cd" fill-rule="evenodd" data-name="Path 51874"/><path d="M309.516 156.393a18.173 18.173 0 0 0-10.277-6.912.643.643 0 1 0-.312 1.246 16.893 16.893 0 0 1 9.345 6.148l1.244.645v-1.127Zm0 0" fill="#dcd2cd" fill-rule="evenodd" data-name="Path 51875"/><path d="M311.258 156.022a16.898 16.898 0 0 1 8.358-4.972.642.642 0 1 0-.312-1.246 18.17 18.17 0 0 0-8.046 4.392v1.826Zm0 0" fill="#c8beb9" fill-rule="evenodd" data-name="Path 51876"/></g></svg>